<svg xmlns="http://www.w3.org/2000/svg" width="497" height="118" viewBox="0 0 497 118" fill="none"><path d="M160.388 85.7C156.934 85.7 153.761 85.35 150.868 84.65C148.021 83.95 145.408 82.9233 143.028 81.57C140.694 80.17 138.548 78.4667 136.588 76.46L141.908 69.18C144.894 72.26 147.928 74.4767 151.008 75.83C154.088 77.1367 157.354 77.79 160.808 77.79C162.814 77.79 164.728 77.5567 166.548 77.09C168.368 76.5767 169.861 75.83 171.028 74.85C172.194 73.87 172.778 72.61 172.778 71.07C172.778 70.09 172.474 69.2733 171.868 68.62C171.308 67.9667 170.514 67.4067 169.487 66.94C168.508 66.4733 167.388 66.1 166.128 65.82C164.914 65.4933 163.631 65.2367 162.278 65.05C160.971 64.8633 159.734 64.6767 158.568 64.49C155.534 64.1167 152.828 63.5333 150.448 62.74C148.068 61.9467 146.014 60.9667 144.288 59.8C142.608 58.6333 141.324 57.2333 140.438 55.6C139.598 53.92 139.177 52.0067 139.177 49.86C139.177 47.5733 139.714 45.52 140.788 43.7C141.861 41.88 143.354 40.34 145.268 39.08C147.228 37.82 149.491 36.8633 152.058 36.21C154.624 35.51 157.401 35.16 160.388 35.16C163.514 35.16 166.384 35.4867 168.998 36.14C171.611 36.7933 173.898 37.7267 175.858 38.94C177.864 40.1533 179.544 41.6233 180.898 43.35L175.368 49.65C174.108 48.25 172.684 47.06 171.097 46.08C169.511 45.1 167.784 44.3767 165.917 43.91C164.051 43.3967 162.138 43.14 160.178 43.14C157.984 43.14 156.024 43.3733 154.298 43.84C152.618 44.3067 151.264 44.9833 150.238 45.87C149.258 46.7567 148.768 47.83 148.768 49.09C148.768 50.21 149.094 51.1667 149.748 51.96C150.448 52.7067 151.381 53.3367 152.548 53.85C153.714 54.3633 155.091 54.8067 156.678 55.18C158.264 55.5067 159.991 55.7867 161.858 56.02C164.564 56.44 167.154 56.9533 169.628 57.56C172.148 58.12 174.341 58.9133 176.208 59.94C178.121 60.92 179.638 62.2033 180.758 63.79C181.878 65.3767 182.438 67.3833 182.438 69.81C182.438 73.0767 181.504 75.9 179.638 78.28C177.818 80.66 175.251 82.5033 171.938 83.81C168.624 85.07 164.774 85.7 160.388 85.7ZM194.027 85L216.707 36H226.087L248.627 85H238.967L224.687 54.13C224.314 53.29 223.917 52.38 223.497 51.4C223.077 50.42 222.657 49.44 222.237 48.46C221.864 47.48 221.49 46.5 221.117 45.52C220.744 44.4933 220.417 43.5133 220.137 42.58L222.307 42.51C221.98 43.5367 221.63 44.5633 221.257 45.59C220.884 46.6167 220.487 47.62 220.067 48.6C219.647 49.58 219.227 50.56 218.807 51.54C218.387 52.4733 217.967 53.4067 217.547 54.34L203.337 85H194.027ZM204.177 74.29L207.467 66.38H234.697L236.587 74.29H204.177ZM274.247 85L252.477 36H262.347L274.317 63.65C274.644 64.5367 275.064 65.5867 275.577 66.8C276.137 67.9667 276.721 69.2267 277.327 70.58C277.934 71.9333 278.494 73.2867 279.007 74.64C279.521 75.9933 279.987 77.2767 280.407 78.49H278.167C278.634 77.0433 279.194 75.4567 279.847 73.73C280.547 72.0033 281.247 70.2767 281.947 68.55C282.694 66.8233 283.371 65.2367 283.977 63.79L295.107 36H305.187L283.767 85H274.247ZM309.007 85L331.687 36H341.067L363.607 85H353.947L339.667 54.13C339.294 53.29 338.897 52.38 338.477 51.4C338.057 50.42 337.637 49.44 337.217 48.46C336.844 47.48 336.471 46.5 336.097 45.52C335.724 44.4933 335.397 43.5133 335.117 42.58L337.287 42.51C336.961 43.5367 336.611 44.5633 336.237 45.59C335.864 46.6167 335.467 47.62 335.047 48.6C334.627 49.58 334.207 50.56 333.787 51.54C333.367 52.4733 332.947 53.4067 332.527 54.34L318.317 85H309.007ZM319.157 74.29L322.447 66.38H349.677L351.567 74.29H319.157ZM378.882 85V36H387.632L423.052 74.29L422.072 74.57C421.838 73.0767 421.628 71.56 421.442 70.02C421.302 68.48 421.185 66.9167 421.092 65.33C420.998 63.7433 420.905 62.1333 420.812 60.5C420.765 58.8667 420.718 57.2333 420.672 55.6C420.672 53.9667 420.672 52.3333 420.672 50.7V36H429.702V85H420.812L385.252 47.27L386.512 46.78C386.652 48.0867 386.768 49.3933 386.862 50.7C387.002 51.96 387.142 53.2433 387.282 54.55C387.422 55.81 387.538 57.07 387.632 58.33C387.725 59.59 387.795 60.8733 387.842 62.18C387.888 63.4867 387.912 64.77 387.912 66.03V85H378.882ZM463.664 85V44.4H446.164V36H490.754V44.4H472.764V85H463.664Z" fill="black"></path><path d="M86 59L13 59" stroke="#9D93FD" stroke-width="26" stroke-linecap="round"></path><path d="M86 59L40 105" stroke="#6453FF" stroke-width="26" stroke-linecap="round"></path><path d="M59 13L13 59" stroke="#D4D0FF" stroke-width="26" stroke-linecap="round"></path></svg>